<?xml version="1.0" encoding="UTF-8"?>
<svg width="106" height="106" opacity="0.2" version="1.1" xmlns="http://www.w3.org/2000/svg" xmlns:xlink="http://www.w3.org/1999/xlink">
 <path fill="#254725" d="m53 0.5a1.5002 1.5002 0 0 0-1.2871 0.72852l-2.6699 4.4492c-0.46783 0.03885-0.9345 0.08043-1.3984 0.13281l-3.4824-3.8379a1.5002 1.5002 0 0 0-1.0977-0.49219 1.5002 1.5002 0 0 0-0.30664 0.029297 1.5002 1.5002 0 0 0-1.1191 0.96484l-1.75 4.8828c-0.45191 0.13014-0.90328 0.26117-1.3496 0.4043l-4.1621-3.084a1.5002 1.5002 0 0 0-0.86523-0.29492 1.5002 1.5002 0 0 0-0.60352 0.11328 1.5002 1.5002 0 0 0-0.9082 1.166l-0.76758 5.1445c-0.41104 0.21304-0.82064 0.42775-1.2246 0.65234l-4.7012-2.2207a1.5002 1.5002 0 0 0-0.66602-0.14258 1.5002 1.5002 0 0 0-1.4727 1.5723l0.25391 5.2129c-0.35633 0.28459-0.70875 0.57268-1.0566 0.86719l-5.0645-1.2656a1.5002 1.5002 0 0 0-0.33984-0.044922 1.5002 1.5002 0 0 0-1.4785 1.8633l1.2656 5.0645c-0.2945 0.34789-0.5826 0.70031-0.86719 1.0566l-5.2129-0.25391a1.5002 1.5002 0 0 0-1.4297 2.1387l2.2207 4.7012c-0.2246 0.40397-0.4393 0.81357-0.65234 1.2246l-5.1445 0.76758a1.5002 1.5002 0 0 0-0.98438 2.377l3.084 4.1621c-0.14313 0.44633-0.27415 0.8977-0.4043 1.3496l-4.8828 1.75a1.5002 1.5002 0 0 0-0.50195 2.5234l3.8379 3.4824c-0.05239 0.46393-0.09396 0.93061-0.13281 1.3984l-4.4492 2.6699a1.5002 1.5002 0 0 0 0 2.5742l4.4492 2.6699c0.03885 0.46783 0.08043 0.9345 0.13281 1.3984l-3.8379 3.4824a1.5002 1.5002 0 0 0 0.50195 2.5234l4.8828 1.75c0.13014 0.45191 0.26117 0.90328 0.4043 1.3496l-3.084 4.1621a1.5002 1.5002 0 0 0 0.98438 2.377l5.1445 0.76758c0.21304 0.41104 0.42775 0.82064 0.65234 1.2246l-2.2207 4.7012a1.5002 1.5002 0 0 0 1.4297 2.1387l5.2129-0.25391c0.28459 0.35633 0.57268 0.70875 0.86719 1.0566l-1.2656 5.0645a1.5002 1.5002 0 0 0 1.8184 1.8184l5.0645-1.2656c0.34789 0.2945 0.70031 0.5826 1.0566 0.86719l-0.25391 5.2129a1.5002 1.5002 0 0 0 2.1387 1.4297l4.7012-2.2207c0.40397 0.2246 0.81357 0.4393 1.2246 0.65234l0.76758 5.1445a1.5002 1.5002 0 0 0 2.377 0.98438l4.1621-3.084c0.44633 0.14313 0.8977 0.27416 1.3496 0.4043l1.75 4.8828a1.5002 1.5002 0 0 0 2.5234 0.50195l3.4824-3.8379c0.46393 0.05239 0.93061 0.09396 1.3984 0.13282l2.6699 4.4492a1.5002 1.5002 0 0 0 2.5742 0l2.6699-4.4492c0.46783-0.03885 0.9345-0.08043 1.3984-0.13282l3.4824 3.8379a1.5002 1.5002 0 0 0 2.5234-0.50195l1.75-4.8828c0.45191-0.13014 0.90328-0.26117 1.3496-0.4043l4.1621 3.084a1.5002 1.5002 0 0 0 2.377-0.98438l0.76758-5.1445c0.41104-0.21304 0.82064-0.42775 1.2246-0.65234l4.7012 2.2207a1.5002 1.5002 0 0 0 2.1387-1.4297l-0.25391-5.2129c0.35633-0.28459 0.70875-0.57268 1.0566-0.86719l5.0645 1.2656a1.5002 1.5002 0 0 0 1.8184-1.8184l-1.2656-5.0645c0.2945-0.34789 0.5826-0.70031 0.86719-1.0566l5.2129 0.25391a1.5002 1.5002 0 0 0 1.4297-2.1387l-2.2207-4.7012c0.2246-0.40397 0.4393-0.81357 0.65234-1.2246l5.1445-0.76758a1.5002 1.5002 0 0 0 0.98438-2.377l-3.084-4.1621c0.14313-0.44633 0.27416-0.8977 0.4043-1.3496l4.8828-1.75a1.5002 1.5002 0 0 0 0.50195-2.5234l-3.8379-3.4824c0.05239-0.46393 0.09396-0.93061 0.13282-1.3984l4.4492-2.6699a1.5002 1.5002 0 0 0 0-2.5742l-4.4492-2.6699c-0.03885-0.46783-0.08043-0.9345-0.13282-1.3984l3.8379-3.4824a1.5002 1.5002 0 0 0-0.50195-2.5234l-4.8828-1.75c-0.13014-0.45191-0.26117-0.90328-0.4043-1.3496l3.084-4.1621a1.5002 1.5002 0 0 0-0.98438-2.377l-5.1445-0.76758c-0.21304-0.41104-0.42775-0.82064-0.65234-1.2246l2.2207-4.7012a1.5002 1.5002 0 0 0-1.4297-2.1387l-5.2129 0.25391c-0.28459-0.35633-0.57268-0.70875-0.86719-1.0566l1.2656-5.0645a1.5002 1.5002 0 0 0-1.459-1.8633 1.5002 1.5002 0 0 0-0.35938 0.044922l-5.0645 1.2656c-0.34789-0.2945-0.70031-0.5826-1.0566-0.86719l0.25391-5.2129a1.5002 1.5002 0 0 0-1.1328-1.5273 1.5002 1.5002 0 0 0-0.33984-0.044922 1.5002 1.5002 0 0 0-0.66602 0.14258l-4.7012 2.2207c-0.40397-0.2246-0.81357-0.4393-1.2246-0.65234l-0.76758-5.1445a1.5002 1.5002 0 0 0-0.9082-1.166 1.5002 1.5002 0 0 0-0.60352-0.11328 1.5002 1.5002 0 0 0-0.86523 0.29492l-4.1621 3.084c-0.44633-0.14313-0.8977-0.27415-1.3496-0.4043l-1.75-4.8828a1.5002 1.5002 0 0 0-1.1191-0.96484 1.5002 1.5002 0 0 0-0.30664-0.029297 1.5002 1.5002 0 0 0-1.0977 0.49219l-3.4824 3.8379c-0.46393-0.05239-0.93061-0.09396-1.3984-0.13281l-2.6699-4.4492a1.5002 1.5002 0 0 0-1.2871-0.72852zm0 9.5a3 3 0 0 1 3 3 3 3 0 0 1-3 3 3 3 0 0 1-3-3 3 3 0 0 1 3-3zm-7.0859 5.1562 4.9648 4.9648a3.0003 3.0003 0 0 0 4.2422 0l4.9648-4.9648c11.562 2.1389 21.288 9.4092 26.729 19.383l-3.2012 6.2832a3.0003 3.0003 0 0 0 1.3125 4.0352l6.248 3.1836c0.20762 1.6243 0.32617 3.2768 0.32617 4.959 0 10.264-3.9911 19.562-10.502 26.453l-6.957-1.1016a3.0003 3.0003 0 0 0-3.4316 2.4941l-1.1035 6.9609c-4.9989 2.3664-10.592 3.6934-16.506 3.6934s-11.507-1.3269-16.506-3.6934l-1.1035-6.9609a3.0003 3.0003 0 0 0-3.4316-2.4941l-6.957 1.1016c-6.5108-6.8906-10.502-16.189-10.502-26.453 0-1.6822 0.11855-3.3347 0.32617-4.959l6.248-3.1836a3.0003 3.0003 0 0 0 1.3125-4.0352l-3.2012-6.2832c5.4405-9.9736 15.166-17.244 26.729-19.383zm-30.871 22.484a3 3 0 0 1 0.8418 0.14648 3 3 0 0 1 1.9258 3.7793 3 3 0 0 1-3.7793 1.9258 3 3 0 0 1-1.9258-3.7793 3 3 0 0 1 2.9375-2.0723zm75.914 0a3 3 0 0 1 2.9375 2.0723 3 3 0 0 1-1.9258 3.7793 3 3 0 0 1-3.7793-1.9258 3 3 0 0 1 1.9258-3.7793 3 3 0 0 1 0.8418-0.14648zm-61.297 44.725a3 3 0 0 1 1.5918 0.56836 3 3 0 0 1 0.66406 4.1914 3 3 0 0 1-4.1914 0.66211 3 3 0 0 1-0.66211-4.1895 3 3 0 0 1 2.5977-1.2324zm46.68 0a3 3 0 0 1 2.5977 1.2324 3 3 0 0 1-0.66211 4.1895 3 3 0 0 1-4.1914-0.66211 3 3 0 0 1 0.66406-4.1914 3 3 0 0 1 1.5918-0.56836z" color="#000000" color-rendering="auto" dominant-baseline="auto" image-rendering="auto" shape-rendering="auto" solid-color="#000000" stop-color="#000000" style="-inkscape-stroke:none;font-feature-settings:normal;font-variant-alternates:normal;font-variant-caps:normal;font-variant-east-asian:normal;font-variant-ligatures:normal;font-variant-numeric:normal;font-variant-position:normal;font-variation-settings:normal;inline-size:0;isolation:auto;mix-blend-mode:normal;shape-margin:0;shape-padding:0;text-decoration-color:#000000;text-decoration-line:none;text-decoration-style:solid;text-indent:0;text-orientation:mixed;text-transform:none;white-space:normal"/>
</svg>
