<?xml version="1.0" encoding="UTF-8"?>
<svg width="32px" height="32px" viewBox="0 0 32 32" version="1.1" xmlns="http://www.w3.org/2000/svg" xmlns:xlink="http://www.w3.org/1999/xlink">
    <path d="M16,32.1066667 C24.836556,32.1066667 32,24.9432227 32,16.1066667 C32,7.27011067 24.836556,0.106666667 16,0.106666667 C7.163444,0.106666667 0,7.27011067 0,16.1066667 C0,24.9432227 7.163444,32.1066667 16,32.1066667 Z" fill="#FFFFFF"></path>
    <path d="M20.2468245,12.5480947 L16,10 L11.7758079,12.5345152 L16.0230764,14.9866768 L20.2468245,12.5480947 Z M21,14.4226497 L17,16.7320508 L17,21.4 L21,19 L21,14.4226497 Z M11,14.3960034 L11,19 L15,21.4 L15,16.7054045 L11,14.3960034 Z M16,8 L23,12 L23,20 L16,24 L9,20 L9,12 L16,8 Z" fill="#B13B89"></path>
</svg>
