<?xml version="1.0" encoding="UTF-8"?>
<svg width="32px" height="32px" viewBox="0 0 32 32" version="1.1" xmlns="http://www.w3.org/2000/svg" xmlns:xlink="http://www.w3.org/1999/xlink">
    <circle fill="#FFFFFF" cx="16" cy="16" r="16"></circle>
    <path d="M10.6188979,13.4448109 L9,11.825913 L11.825913,9 L13.4448109,10.6188979 C13.6250783,10.5322123 13.810323,10.4542319 14,10.3855019 L14,8 L17.9964444,8 L17.9964444,10.3467762 C18.2325836,10.4271593 18.462134,10.5217876 18.6840714,10.6296371 L20.3137085,9 L23.1396215,11.825913 L21.4984318,13.4671027 C21.5808601,13.64034 21.6552646,13.8181326 21.7211648,14 L24,14 L24,17.9964444 L21.7598905,17.9964444 C21.6821864,18.2247136 21.5911708,18.4468257 21.4877687,18.6618558 L23.1396215,20.3137085 L20.3137085,23.1396215 L18.6618558,21.4877687 C18.4468257,21.5911708 18.2247136,21.6821864 17.9964444,21.7598905 L17.9964444,24 L14,24 L14,21.7211648 C13.8181326,21.6552646 13.64034,21.5808601 13.4671027,21.4984318 L11.825913,23.1396215 L9,20.3137085 L10.6296371,18.6840714 C10.5217876,18.462134 10.4271593,18.2325836 10.3467762,17.9964444 L8,17.9964444 L8,14 L10.3855019,14 C10.4542319,13.810323 10.5322123,13.6250783 10.6188979,13.4448109 Z M16.0533333,18.56 C17.4377271,18.56 18.56,17.4377271 18.56,16.0533333 C18.56,14.6689396 17.4377271,13.5466667 16.0533333,13.5466667 C14.6689396,13.5466667 13.5466667,14.6689396 13.5466667,16.0533333 C13.5466667,17.4377271 14.6689396,18.56 16.0533333,18.56 Z" fill="#B84D94"></path>
</svg>
