<svg height="512" width="512" viewBox="0 0 512 512" fill="currentColor" xmlns="http://www.w3.org/2000/svg">
    <path d="m160.768 460.8c193.1264 0 298.8032-160.1536 298.8032-298.8032 0-4.5056 0-9.0112-.2048-13.5168 20.48-14.7456 38.2976-33.3824 52.4288-54.4768-18.8416 8.3968-39.1168 13.9264-60.416 16.5888 21.7088-12.9024 38.2976-33.5872 46.2848-58.1632-20.2752 12.0832-42.8032 20.6848-66.7648 25.3952-19.2512-20.48-46.4896-33.1776-76.5952-33.1776-57.9584 0-105.0624 47.104-105.0624 105.0624 0 8.192 1.024 16.1792 2.6624 23.9616-87.2448-4.3008-164.6592-46.2848-216.4736-109.7728-9.0112 15.5648-14.1312 33.5872-14.1312 52.8384 0 36.4544 18.6368 68.608 46.6944 87.4496-17.2032-.6144-33.3824-5.3248-47.5136-13.1072v1.4336c0 50.7904 36.2496 93.3888 84.1728 103.0144-8.8064 2.4576-18.0224 3.6864-27.648 3.6864-6.7584 0-13.312-.6144-19.6608-1.8432 13.312 41.7792 52.224 72.0896 98.0992 72.9088-36.0448 28.2624-81.3056 45.056-130.4576 45.056-8.3968 0-16.7936-.4096-24.9856-1.4336 46.2848 29.4912 101.5808 46.8992 160.768 46.8992" />
</svg>
