<?xml version="1.0" encoding="UTF-8"?>
<svg width="512" height="512" version="1.1" viewBox="0 0 512 512" xml:space="preserve" xmlns="http://www.w3.org/2000/svg">
    <rect width="512" height="512" fill="#fff"/>
    <g transform="matrix(.72196 0 0 .72196 -123.97 125.46)">
        <path d="m993.12 412.9c-0.88-3.064-1.756-6.126-2.662-9.162l30.683-44.451c3.13-4.522 3.77-10.398 1.73-15.555-2.04-5.13-6.49-8.81-11.76-9.71l-51.886-8.805c-2.008-4.102-4.116-8.142-6.23-12.15l21.797-49.903c2.243-5.087 1.769-10.995-1.203-15.608-2.961-4.636-7.99-7.344-13.349-7.133l-52.656 1.913c-2.727-3.55-5.496-7.068-8.322-10.521l12.101-53.49c1.225-5.433-0.322-11.118-4.103-15.064-3.762-3.932-9.229-5.559-14.426-4.283l-51.289 12.608c-3.321-2.935-6.699-5.833-10.114-8.673l1.848-54.914c0.198-5.559-2.393-10.841-6.844-13.925-4.446-3.104-10.093-3.573-14.956-1.266l-47.847 22.747c-3.854-2.21-7.728-4.4-11.644-6.517l-8.455-54.115c-0.857-5.482-4.385-10.138-9.326-12.265-4.923-2.138-10.568-1.448-14.891 1.808l-42.659 32.007c-4.2-1.396-8.419-2.733-12.692-4.011l-18.386-51.317c-1.87-5.229-6.181-9.071-11.438-10.151-5.239-1.071-10.63 0.743-14.263 4.802l-35.907 40.172c-4.342-0.5-8.685-0.956-13.043-1.332l-27.723-46.713c-2.81-4.732-7.77-7.612-13.116-7.612-5.334 0-10.304 2.88-13.09 7.612l-27.733 46.713c-4.358 0.376-8.722 0.832-13.056 1.332l-35.91-40.172c-3.636-4.059-9.047-5.873-14.268-4.802-5.255 1.092-9.573 4.922-11.433 10.151l-18.402 51.317c-4.26 1.278-8.481 2.627-12.691 4.011l-42.644-32.007c-4.336-3.266-9.98-3.955-14.916-1.808-4.919 2.127-8.461 6.783-9.313 12.265l-8.461 54.115c-3.914 2.117-7.789 4.294-11.653 6.517l-47.842-22.747c-4.858-2.315-10.529-1.838-14.954 1.266-4.445 3.084-7.042 8.366-6.84 13.925l1.835 54.914c-3.405 2.84-6.774 5.738-10.112 8.673l-51.279-12.608c-5.211-1.265-10.67 0.351-14.441 4.283-3.795 3.946-5.332 9.631-4.113 15.064l12.079 53.49c-2.802 3.467-5.575 6.971-8.293 10.521l-52.655-1.913c-5.315-0.157-10.387 2.497-13.356 7.133-2.975 4.613-3.425 10.521-1.211 15.608l21.814 49.903c-2.119 4.008-4.224 8.048-6.249 12.15l-51.883 8.805c-5.271 0.888-9.714 4.566-11.764 9.71-2.037 5.157-1.376 11.033 1.735 15.555l30.69 44.451c-0.237 0.784-0.455 1.576-0.69 2.364l-16.863 17.912 45.341 64.049c9.4612 327.1 851.59 337 838.8 3.396 46.108-8.273 56.855-78.559 56.855-78.559z" fill="#e43a25"/>
        <path d="m608.3 349.06s48.157-52.729 96.315 0c0 0 37.84 70.312 0 105.46 0 0-61.917 49.217-96.315 0 0 0-41.279-38.672 0-105.46z" fill="#030404"/>
        <path d="m664.06 368.62c0 20.533-12.103 37.179-27.03 37.179-14.924 0-27.027-16.646-27.027-37.179 0-20.532 12.103-37.18 27.027-37.18 14.927 0 27.03 16.648 27.03 37.18z" fill="#fff"/>
        <path d="m393.36 334.66s82.608-36.576 105.15 45.062c0 0 23.618 95.154-67.837 100.52 0 0-116.62-22.462-37.317-145.59z" fill="#030404"/>
        <path d="m434.86 369.97c0 21.173-12.48 38.346-27.877 38.346-15.391 0-27.874-17.173-27.874-38.346 0-21.178 12.483-38.346 27.874-38.346 15.397 0 27.877 17.168 27.877 38.346z" fill="#fff"/>
    </g>
</svg>
