<?xml version="1.0" encoding="UTF-8"?>
<svg width="100" height="100" version="1.1" viewBox="0 0 100 100" xmlns="http://www.w3.org/2000/svg">
 <!--! Font Awesome Free 6.7.2 by @fontawesome - https://fontawesome.com License - https://fontawesome.com/license/free (Icons: CC BY 4.0, Fonts: SIL OFL 1.1, Code: MIT License) Copyright 2024 Fonticons, Inc. -->
 <path d="m61.376 10.184c-2.6565-0.76568-5.4223 0.78131-6.188 3.4378l-20.002 70.005c-0.76568 2.6565 0.78131 5.4223 3.4378 6.188 2.6565 0.76568 5.4223-0.78131 6.188-3.4378l20.002-70.005c0.76568-2.6565-0.78131-5.4223-3.4378-6.188zm12.595 18.767c-1.9533 1.9533-1.9533 5.1254 0 7.0787l13.954 13.97-13.97 13.97c-1.9533 1.9533-1.9533 5.1254 0 7.0787 1.9533 1.9533 5.1254 1.9533 7.0787 0l17.501-17.501c1.9533-1.9533 1.9533-5.1254 0-7.0787l-17.501-17.501c-1.9533-1.9533-5.1254-1.9533-7.0787 0zm-47.926 0c-1.9533-1.9533-5.1254-1.9533-7.0787 0l-17.501 17.501c-1.9533 1.9533-1.9533 5.1254 0 7.0787l17.501 17.501c1.9533 1.9533 5.1254 1.9533 7.0787 0 1.9533-1.9533 1.9533-5.1254 0-7.0787l-13.97-13.954 13.97-13.97c1.9533-1.9533 1.9533-5.1254 0-7.0787z" fill="currentColor"/>
</svg>
