<svg width="24" height="25" viewBox="0 0 24 25" fill="currentColor" xmlns="http://www.w3.org/2000/svg">
    <path d="M18,20 L20,20 L20,23 C20,24 19,25 18,25 L2,25 C1.00162728,25 0,24 0,23 L0,5 C0,4.08854167 0.755208333,3.33333333 1.66666667,3.33333333 L6.66666667,3.33333333 C6.66666667,1.484375 8.15104167,0 10,0 C11.8489583,0 13.3333333,1.484375 13.3333333,3.33333333 L18.3333333,3.33333333 C19.2447917,3.33333333 20,4.08854167 20,5 L20,13.3333333 L18,13.3333333 L18,9 L2,9 L2,23 L18,23 L18,20 Z M3,7 L17,7 C17,6.08854166 16.2070312,5.33333333 15.25,5.33333333 L13.4999999,5.33333333 C12.5429687,5.33333333 11.75,4.578125 11.75,3.66666666 C11.75,2.75520833 10.9570312,2 9.99999998,2 C9.04296874,2 8.24999999,2.75520833 8.24999999,3.66666666 C8.24999999,4.578125 7.45703124,5.33333333 6.5,5.33333333 L4.75,5.33333333 C3.79296875,5.33333333 3,6.08854166 3,7 Z"/>
    <polygon points="4 19 10 19 10 21 4 21"/>
    <polygon points="12 11 4 11 4 13 12 13"/>
    <polygon points="4 17 8 17 8 15 4 15"/>
    <polygon points="15 15 15 12 10.5 16.5 15 21 15 18 23.0273073 17.9676298 23 15"/>
</svg>
