<svg xmlns="http://www.w3.org/2000/svg" height="512" width="384" viewBox="0 0 384 512">
    <path fill="currentColor" d="M128 96v32h32V96zm65.9 169.6c-1.1-5.6-6-9.6-11.8-9.6H160v-32h-32v32l-19.4 97.2c-6.5 32.5 18.3 62.8 51.4 62.8s57.9-30.3 51.4-62.8zm-33.6 124.5c-17.9 0-32.4-12.1-32.4-27s14.5-27 32.4-27 32.4 12.1 32.4 27-14.5 27-32.4 27zM128 160v32h32v-32zm64-96h-32v32h32zm177.9 33.9L286 14C277 5 264.8-.1 252.1-.1H48C21.5 0 0 21.5 0 48v416c0 26.5 21.5 48 48 48h288c26.5 0 48-21.5 48-48V131.9c0-12.7-5.1-25-14.1-34zM256 32.5c2.8.7 5.4 2.1 7.4 4.2l83.9 83.9c2 2 3.5 4.6 4.2 7.4H256zM352 464c0 8.8-7.2 16-16 16H48c-8.8 0-16-7.2-16-16V48c0-8.8 7.2-16 16-16h79.7v32h32V32H224v104c0 13.3 10.7 24 24 24h104zM192 192h-32v32h32zm0-64h-32v32h32z"/>
</svg>
