<svg width="13" height="15" viewBox="0 0 13 15" fill="currentColor" xmlns="http://www.w3.org/2000/svg">
    <rect x="0" y="0" width="2" height="14"/>
    <path d="M4.06982345,2.1915854 L4.00849815,2.1915854 L4.00849815,0.132198781 L4.08031365,0.144637298 C4.11981215,0.151478488 4.2764253,0.178262126 4.4283428,0.204156507 C4.9079843,0.285911597 5.3481255,0.391670726 5.814935,0.537333222 L5.997236,0.594218136 C5.993306,1.94826807 5.98409933,2.62453853 5.969616,2.62302953 C5.954426,2.62144677 5.812727,2.58057436 5.6547325,2.53220226 C5.2036205,2.39408876 4.2613621,2.1915854 4.06982345,2.1915854 Z"/>
    <path d="M2.57771175,4.14158384 L2,4.12761471 L2,2.07122426 L2.4561778,2.08694478 C2.93040555,2.10328753 3.32132365,2.13004547 3.7267603,2.17150743 L4,2.1980595 C4,3.46809758 4,4.15552115 4,4.2603302 C3.93253165,4.23325634 3.05970245,4.15365129 2.57771175,4.14158384 Z"/>
    <path d="M4.06314725,6.32907466 L4.00849815,6.32907466 L4.00849815,4.26968783 L4.08031365,4.28212645 C4.11981215,4.28896748 4.2764253,4.31575128 4.4283428,4.34164567 C4.9079843,4.42340074 5.3481255,4.5291599 5.814935,4.67482241 L5.997236,4.73170733 C5.99539333,6.03495581 5.99539333,6.7220989 5.997236,6.7931366 C5.814935,6.67428589 4.2655547,6.32907466 4.06314725,6.32907466 Z"/>
    <path d="M2.5666632,8.27895879 L2,8.26525707 L2,6.20871052 L2.4561778,6.22442948 C2.9304057,6.24076914 3.32132365,6.26753121 3.7267603,6.30899172 L4,6.33554172 C4,7.62201862 4,8.30140397 4,8.37369776 C3.93608115,8.3474519 3.0441669,8.29092 2.5666632,8.27895879 Z"/>
    <path d="M6.339741,4.822917 L6,4.71121872 L6.0188715,2.66839464 L6.0688165,2.68417567 C6.1509495,2.71012567 6.967909,3.01947672 7.49379,3.22375795 L7.984933,3.41454502 C7.98396633,4.77804591 7.98246467,5.45953826 7.980428,5.45902205 C7.977378,5.45824619 7.676593,5.33993912 7.311991,5.19611447 C6.9474105,5.05228986 6.5098885,4.88435105 6.339741,4.822917 Z"/>
    <path d="M6.361838,8.96897897 L6.0303815,8.84854397 L6,6.80588379 C6.64527267,7.03993862 7.14320267,7.22505983 7.49379,7.36124741 L7.984933,7.55203448 C7.98396633,8.91552966 7.98246467,9.59701534 7.980428,9.59649155 C7.977378,9.59571569 7.6865365,9.48129207 7.334088,9.34223845 C6.981661,9.20318483 6.544139,9.03521793 6.361838,8.96897897 Z"/>
    <path d="M9.7868865,3.92509019 C9.1363725,3.76378459 8.810275,3.6723271 8.4444885,3.54860028 L8.008071,3.40098274 C8.01304433,2.04613578 8.01856933,1.36873383 8.024646,1.3687769 C8.033761,1.36884155 8.1903745,1.42063469 8.3726755,1.48387278 C8.791894,1.62929493 9.2520945,1.7604044 9.6702,1.85353293 L9.996811,1.9262821 L9.996811,3.95173267 L9.936044,3.94936888 C9.90262,3.94807179 9.8355,3.93714471 9.7868865,3.92509019 Z"/>
    <path d="M8.4113425,7.67489793 L8.008071,7.53782948 C8.013541,6.18337534 8.01961767,5.50614828 8.026301,5.50614828 C8.036326,5.50614828 8.1432215,5.54147586 8.2638445,5.58465776 C8.737778,5.754315 9.373118,5.93473655 9.80346,6.02187259 L9.9968095,6.06102259 C9.99514283,7.42784224 9.99330117,8.11091431 9.9912845,8.11023879 C9.9882345,8.10920431 9.8415765,8.07450776 9.6653525,8.03308552 C9.185717,7.92034759 8.8585225,7.82688983 8.4113425,7.67489793 Z"/>
    <path d="M10.2635175,6.08116655 L10.0299545,6.04304069 L10.0184445,3.99371219 L10.07944,4.00680253 C10.341439,4.06303117 11.1726685,4.16780384 11.543601,4.19135322 C11.659058,4.19868305 11.8057275,4.21022633 11.869533,4.21700478 L11.9855425,4.22932909 L11.9855425,6.26049528 L11.869533,6.2577539 C11.8057275,6.2562539 11.599396,6.24162631 11.411018,6.22525562 C11.0442425,6.19338879 10.640232,6.14265672 10.2635175,6.08116655 Z"/>
    <path d="M10.1956825,10.2085681 L10.0299545,10.1794371 L10.0184445,8.12986707 L10.0683945,8.14277224 C10.210434,8.17947569 10.931979,8.27424621 11.316049,8.30664569 C11.5566615,8.32694224 11.805731,8.34878534 11.8695365,8.35518362 L11.985546,8.36682155 L11.985546,10.3979876 L11.8695365,10.3952462 C11.805731,10.3937462 11.5986415,10.3790566 11.409338,10.3626134 C11.0544395,10.3317972 10.486817,10.2597471 10.1956825,10.2085681 Z"/>
    <path d="M12.0076435,4.20199138 L12.0076435,2.13988531 C12.2391105,2.15885255 12.4287772,2.16838238 12.5766435,2.16847479 L13,2.16872638 L13,4.2260414 L12.0076435,4.20199138 Z"/>
    <path d="M12.0076435,8.33941397 L12.0076435,6.27737224 L12.0905075,6.29153948 C12.1360825,6.29933431 12.354844,6.30582052 12.5766435,6.30596017 L13,6.30621155 L13,8.36352672 L12.808663,8.35850948 C12.714474,8.35571638 12.495713,8.35031638 12.322527,8.34645259 L12.0076435,8.33941397 Z"/>
</svg>
