<?xml version="1.0" encoding="UTF-8"?>
<svg width="14px" height="14px" viewBox="0 0 14 14" version="1.1" xmlns="http://www.w3.org/2000/svg" xmlns:xlink="http://www.w3.org/1999/xlink">
    <path d="M2.70274047,8.64763174 L1.0797937,7.84 L1.58345926,12.04 L5.26819704,9.92428739 L3.76432031,9.17590882 C4.75570799,8.25698966 5.80347201,7.83929442 7.32935087,7.83929442 C9.19975559,7.93400992 10.5715482,8.80181943 11.5317249,10.2089608 C11.8937646,10.739531 12.1705384,11.3112065 12.371742,11.8828051 C12.4419587,12.0822835 12.4975105,12.2667323 12.5398074,12.43092 C12.5642872,12.525945 12.5784899,12.5905444 12.5838998,12.6195022 L13.6848516,12.4138197 C13.649226,12.2231278 13.5682442,11.908774 13.4282023,11.5109294 C13.1965529,10.8528375 12.8779784,10.1948225 12.4568662,9.57768156 C11.3100969,7.89708804 9.62996299,6.83421885 7.35746161,6.72000041 C5.33113163,6.71941555 3.97280319,7.34750102 2.70274047,8.64763174 Z" transform="translate(7.382323, 9.669751) rotate(-180.000000) translate(-7.382323, -9.669751) " fill="#B84D94"></path>
    <path d="M2.18294676,2.76763174 L0.56,1.96 L1.06366556,6.16 L4.74840334,4.04428739 L3.24452661,3.29590882 C4.23591429,2.37698966 5.2836783,1.95929442 6.80955717,1.95929442 C8.67996188,2.05400992 10.0517545,2.92181943 11.0119312,4.32896079 C11.3739709,4.85953098 11.6507447,5.43120651 11.8519483,6.00280511 C11.922165,6.20228351 11.9777168,6.38673229 12.0200137,6.55092005 C12.0444934,6.64594496 12.0586962,6.71054441 12.0641061,6.7395022 L13.1650579,6.53381966 C13.1294323,6.34312785 13.0484505,6.02877399 12.9084086,5.63092941 C12.6767592,4.97283749 12.3581847,4.31482252 11.9370725,3.69768156 C10.7903032,2.01708804 9.11016928,0.954218853 6.83766791,0.840000408 C4.81133792,0.83941555 3.45300949,1.46750102 2.18294676,2.76763174 Z" fill="#B84D94"></path>
</svg>
