<svg width="10" height="13" viewBox="0 0 10 13" xmlns="http://www.w3.org/2000/svg">
    <path d="M1.0102859,6 C1.03905014,4.33379691 1.13776768,3.49239071 1.42224585,2.6000634 C1.95609947,0.925516001 3.14318008,1.38283345e-10 5,-1.42108547e-14 C6.85681992,-1.38311491e-10 8.04390053,0.925516001 8.57775415,2.6000634 C8.86223232,3.49239071 8.96094986,4.33379691 8.9897141,6 L10,6 L10,13 L0,13 L0,6 L1.0102859,6 Z M3,6 L7,6 C7,4.19107867 6.94223555,3.4941306 6.67224585,2.87821705 C6.3955179,2.24693189 5.96002992,2 5,2 C3.32473074,2 3,2.74079144 3,6 Z" fill="currentColor" />
</svg>
