<svg height="512" width="512" viewBox="0 0 512 512" fill="currentColor" xmlns="http://www.w3.org/2000/svg">
    <path d="M485.686 76.557c0 25.792-11.583 48.707-29.236 62.61L285.082 292.209c-3.182 2.728-7.32-1.67-5.024-5.342l62.86-125.855c1.761-3.523-.524-7.854-4.138-7.854H94.97c-37.76 0-68.656-34.465-68.656-76.58C26.314 34.453 57.21 0 94.971 0h322.058c37.761-.023 68.657 34.442 68.657 76.556ZM94.97 512h322.058c37.761 0 68.657-34.464 68.657-76.58 0-42.125-30.896-76.578-68.657-76.578H173.22c-3.614 0-5.899-4.33-4.137-7.854l62.859-125.855c2.296-3.671-1.842-8.07-5.024-5.342L55.55 372.812c-17.653 13.89-29.236 36.819-29.236 62.61 0 42.115 30.896 76.579 68.657 76.579z"/>
</svg>
